<svg width="16" height="16" viewBox="0 0 16 16" fill="none" xmlns="http://www.w3.org/2000/svg">
<g filter="url(#filter0_i_32_2)">
<path d="M5.865 2.72898C5.702 2.01948 6.16 1.29998 6.8695 1.13648C7.5785 0.97348 8.2945 1.40748 8.458 2.11648L9.222 5.61298L9.262 2.90698C9.2715 2.56034 9.41722 2.23141 9.66758 1.99148C9.91795 1.75155 10.2528 1.61996 10.5995 1.62522C10.9462 1.63048 11.2769 1.77218 11.5199 2.0196C11.7629 2.26701 11.8985 2.60021 11.8975 2.94698L11.8415 6.68198C11.8375 6.95575 11.871 7.22879 11.941 7.49348L12.1905 8.43748C12.3635 8.98098 12.705 10.369 12.4045 11.3925C12.0985 12.7175 11.0185 13.7775 10.081 14.3075C9.1435 14.8375 8.109 15.0975 6.5955 14.8835C4.644 14.4655 3.538 13.095 3.1455 11.3215C2.8115 9.95148 2.6255 8.50448 2.5455 7.94148L6.8385 6.88348L5.865 2.72898Z" fill="#E0A494"/>
<path d="M5.865 2.72898C5.702 2.01948 6.16 1.29998 6.8695 1.13648C7.5785 0.97348 8.2945 1.40748 8.458 2.11648L9.222 5.61298L9.262 2.90698C9.2715 2.56034 9.41722 2.23141 9.66758 1.99148C9.91795 1.75155 10.2528 1.61996 10.5995 1.62522C10.9462 1.63048 11.2769 1.77218 11.5199 2.0196C11.7629 2.26701 11.8985 2.60021 11.8975 2.94698L11.8415 6.68198C11.8375 6.95575 11.871 7.22879 11.941 7.49348L12.1905 8.43748C12.3635 8.98098 12.705 10.369 12.4045 11.3925C12.0985 12.7175 11.0185 13.7775 10.081 14.3075C9.1435 14.8375 8.109 15.0975 6.5955 14.8835C4.644 14.4655 3.538 13.095 3.1455 11.3215C2.8115 9.95148 2.6255 8.50448 2.5455 7.94148L6.8385 6.88348L5.865 2.72898Z" fill="url(#paint0_radial_32_2)"/>
</g>
<g filter="url(#filter1_f_32_2)">
<path d="M3.52051 6.66001L6.14551 6.26801L6.64401 9.60401L4.01901 9.99601L3.52051 6.66001Z" fill="#8F4F46"/>
</g>
<g filter="url(#filter2_f_32_2)">
<path d="M12.048 10.533C12.0434 10.4499 12.0369 10.3668 12.0285 10.284C11.9359 9.67153 11.6347 9.10979 11.1758 8.69367C10.717 8.27754 10.1286 8.03253 9.51 8H8.595C7.895 8.0025 7.328 8.5635 7.328 9.255C7.32867 9.49374 7.39743 9.72734 7.5262 9.92838C7.65497 10.1294 7.83842 10.2896 8.055 10.39V10.3925C8.095 10.4135 8.162 10.4395 8.2515 10.4635C8.28684 10.4735 8.323 10.4818 8.36 10.4885C8.4985 10.517 8.675 10.5385 8.8825 10.5385H8.9265V10.5335L12.048 10.533Z" fill="#8F4F46"/>
</g>
<path d="M5.00793 6.90158C4.90225 6.19394 4.24292 5.70596 3.53529 5.81164C2.82765 5.91732 2.33967 6.57664 2.44535 7.28428L2.61189 8.39941C2.71757 9.10705 3.3769 9.59503 4.08453 9.48935C4.79217 9.38367 5.28015 8.72434 5.17447 8.01671L5.00793 6.90158Z" fill="#DBA583"/>
<path d="M5.00793 6.90158C4.90225 6.19394 4.24292 5.70596 3.53529 5.81164C2.82765 5.91732 2.33967 6.57664 2.44535 7.28428L2.61189 8.39941C2.71757 9.10705 3.3769 9.59503 4.08453 9.48935C4.79217 9.38367 5.28015 8.72434 5.17447 8.01671L5.00793 6.90158Z" fill="url(#paint1_linear_32_2)"/>
<path d="M5.00793 6.90158C4.90225 6.19394 4.24292 5.70596 3.53529 5.81164C2.82765 5.91732 2.33967 6.57664 2.44535 7.28428L2.61189 8.39941C2.71757 9.10705 3.3769 9.59503 4.08453 9.48935C4.79217 9.38367 5.28015 8.72434 5.17447 8.01671L5.00793 6.90158Z" fill="url(#paint2_linear_32_2)"/>
<path d="M5.00793 6.90158C4.90225 6.19394 4.24292 5.70596 3.53529 5.81164C2.82765 5.91732 2.33967 6.57664 2.44535 7.28428L2.61189 8.39941C2.71757 9.10705 3.3769 9.59503 4.08453 9.48935C4.79217 9.38367 5.28015 8.72434 5.17447 8.01671L5.00793 6.90158Z" fill="url(#paint3_radial_32_2)"/>
<path d="M5.00793 6.90158C4.90225 6.19394 4.24292 5.70596 3.53529 5.81164C2.82765 5.91732 2.33967 6.57664 2.44535 7.28428L2.61189 8.39941C2.71757 9.10705 3.3769 9.59503 4.08453 9.48935C4.79217 9.38367 5.28015 8.72434 5.17447 8.01671L5.00793 6.90158Z" fill="url(#paint4_radial_32_2)"/>
<path d="M5.86501 2.72898C5.70201 2.01948 6.16001 1.29998 6.86951 1.13648C7.57851 0.97348 8.29451 1.40748 8.45801 2.11648L9.31801 5.98348C9.48101 6.69298 8.72401 6.70248 8.16151 6.85848C7.59901 7.01448 6.84001 7.04148 6.67701 6.33248L5.86501 2.72898Z" fill="url(#paint5_linear_32_2)"/>
<path d="M5.86501 2.72898C5.70201 2.01948 6.16001 1.29998 6.86951 1.13648C7.57851 0.97348 8.29451 1.40748 8.45801 2.11648L9.31801 5.98348C9.48101 6.69298 8.72401 6.70248 8.16151 6.85848C7.59901 7.01448 6.84001 7.04148 6.67701 6.33248L5.86501 2.72898Z" fill="url(#paint6_linear_32_2)"/>
<path d="M5.86501 2.72898C5.70201 2.01948 6.16001 1.29998 6.86951 1.13648C7.57851 0.97348 8.29451 1.40748 8.45801 2.11648L9.31801 5.98348C9.48101 6.69298 8.72401 6.70248 8.16151 6.85848C7.59901 7.01448 6.84001 7.04148 6.67701 6.33248L5.86501 2.72898Z" fill="url(#paint7_linear_32_2)"/>
<path d="M5.86501 2.72898C5.70201 2.01948 6.16001 1.29998 6.86951 1.13648C7.57851 0.97348 8.29451 1.40748 8.45801 2.11648L9.31801 5.98348C9.48101 6.69298 8.72401 6.70248 8.16151 6.85848C7.59901 7.01448 6.84001 7.04148 6.67701 6.33248L5.86501 2.72898Z" fill="url(#paint8_linear_32_2)"/>
<path d="M5.86501 2.72898C5.70201 2.01948 6.16001 1.29998 6.86951 1.13648C7.57851 0.97348 8.29451 1.40748 8.45801 2.11648L9.31801 5.98348C9.48101 6.69298 8.72401 6.70248 8.16151 6.85848C7.59901 7.01448 6.84001 7.04148 6.67701 6.33248L5.86501 2.72898Z" fill="url(#paint9_radial_32_2)"/>
<path d="M9.238 2.90697C9.24326 2.55749 9.38713 2.22441 9.63795 1.981C9.88878 1.73758 10.226 1.60376 10.5755 1.60897C11.303 1.61997 11.9085 2.21897 11.8975 2.94647L11.8545 5.82947C11.844 6.55697 11.303 6.72847 10.5755 6.71797C9.8475 6.70697 9.227 6.52447 9.238 5.79647V2.90697Z" fill="url(#paint10_linear_32_2)"/>
<path d="M9.238 2.90697C9.24326 2.55749 9.38713 2.22441 9.63795 1.981C9.88878 1.73758 10.226 1.60376 10.5755 1.60897C11.303 1.61997 11.9085 2.21897 11.8975 2.94647L11.8545 5.82947C11.844 6.55697 11.303 6.72847 10.5755 6.71797C9.8475 6.70697 9.227 6.52447 9.238 5.79647V2.90697Z" fill="url(#paint11_linear_32_2)"/>
<path d="M9.238 2.90697C9.24326 2.55749 9.38713 2.22441 9.63795 1.981C9.88878 1.73758 10.226 1.60376 10.5755 1.60897C11.303 1.61997 11.9085 2.21897 11.8975 2.94647L11.8545 5.82947C11.844 6.55697 11.303 6.72847 10.5755 6.71797C9.8475 6.70697 9.227 6.52447 9.238 5.79647V2.90697Z" fill="url(#paint12_radial_32_2)"/>
<path d="M5.865 2.72898C5.702 2.01948 6.16 1.29998 6.8695 1.13648C7.5785 0.97348 8.2945 1.40748 8.458 2.11648L9.222 5.61298L9.262 2.90698C9.2715 2.56034 9.41722 2.23141 9.66758 1.99148C9.91795 1.75155 10.2528 1.61996 10.5995 1.62522C10.9462 1.63048 11.2769 1.77218 11.5199 2.0196C11.7629 2.26701 11.8985 2.60021 11.8975 2.94698L11.8415 6.68198C11.8375 6.95575 11.871 7.22879 11.941 7.49348L12.1905 8.43748C12.3635 8.98098 12.705 10.369 12.4045 11.3925C12.0985 12.7175 11.0185 13.7775 10.081 14.3075C9.1435 14.8375 8.109 15.0975 6.5955 14.8835C4.644 14.4655 3.538 13.095 3.1455 11.3215C2.8115 9.95148 2.6255 8.50448 2.5455 7.94148L6.8385 6.88348L5.865 2.72898Z" fill="url(#paint13_radial_32_2)"/>
<g filter="url(#filter3_f_32_2)">
<path d="M4.60202 6.42244C4.58494 6.30298 4.47425 6.21999 4.35479 6.23707C4.23533 6.25416 4.15234 6.36485 4.16942 6.4843L4.48294 8.6765C4.50003 8.79596 4.61072 8.87895 4.73017 8.86186C4.84963 8.84478 4.93262 8.73409 4.91554 8.61463L4.60202 6.42244Z" fill="#BC7F5B"/>
</g>
<path d="M5.5276 5.01777L5.46479 5.02715C4.75716 5.13283 4.26917 5.79216 4.37486 6.4998L4.63415 8.23604C4.73983 8.94368 5.39916 9.43166 6.1068 9.32598L6.1696 9.3166C6.87724 9.21092 7.36522 8.55159 7.25954 7.84395L7.00024 6.10771C6.89456 5.40007 6.23523 4.91209 5.5276 5.01777Z" fill="#DBA583"/>
<path d="M5.5276 5.01777L5.46479 5.02715C4.75716 5.13283 4.26917 5.79216 4.37486 6.4998L4.63415 8.23604C4.73983 8.94368 5.39916 9.43166 6.1068 9.32598L6.1696 9.3166C6.87724 9.21092 7.36522 8.55159 7.25954 7.84395L7.00024 6.10771C6.89456 5.40007 6.23523 4.91209 5.5276 5.01777Z" fill="url(#paint14_linear_32_2)"/>
<path d="M5.5276 5.01777L5.46479 5.02715C4.75716 5.13283 4.26917 5.79216 4.37486 6.4998L4.63415 8.23604C4.73983 8.94368 5.39916 9.43166 6.1068 9.32598L6.1696 9.3166C6.87724 9.21092 7.36522 8.55159 7.25954 7.84395L7.00024 6.10771C6.89456 5.40007 6.23523 4.91209 5.5276 5.01777Z" fill="url(#paint15_linear_32_2)"/>
<path d="M5.5276 5.01777L5.46479 5.02715C4.75716 5.13283 4.26917 5.79216 4.37486 6.4998L4.63415 8.23604C4.73983 8.94368 5.39916 9.43166 6.1068 9.32598L6.1696 9.3166C6.87724 9.21092 7.36522 8.55159 7.25954 7.84395L7.00024 6.10771C6.89456 5.40007 6.23523 4.91209 5.5276 5.01777Z" fill="url(#paint16_radial_32_2)"/>
<path d="M5.5276 5.01777L5.46479 5.02715C4.75716 5.13283 4.26917 5.79216 4.37486 6.4998L4.63415 8.23604C4.73983 8.94368 5.39916 9.43166 6.1068 9.32598L6.1696 9.3166C6.87724 9.21092 7.36522 8.55159 7.25954 7.84395L7.00024 6.10771C6.89456 5.40007 6.23523 4.91209 5.5276 5.01777Z" fill="url(#paint17_radial_32_2)"/>
<g opacity="0.5" filter="url(#filter4_f_32_2)">
<path d="M4.29507 6.89444C4.27466 6.75509 4.14527 6.65865 4.00606 6.67904C3.86685 6.69942 3.77054 6.82891 3.79094 6.96825L3.98167 8.27086C4.00207 8.41021 4.13146 8.50665 4.27067 8.48627C4.40988 8.46588 4.5062 8.3364 4.48579 8.19705L4.29507 6.89444Z" fill="url(#paint18_linear_32_2)"/>
</g>
<g opacity="0.5" filter="url(#filter5_f_32_2)">
<path d="M6.67981 5.95438C6.63437 5.64399 6.34591 5.42921 6.03552 5.47466C5.72513 5.5201 5.51035 5.80857 5.5558 6.11895L5.796 7.75946C5.84145 8.06985 6.12991 8.28463 6.4403 8.23918C6.75069 8.19373 6.96546 7.90527 6.92002 7.59488L6.67981 5.95438Z" fill="url(#paint19_linear_32_2)"/>
</g>
<g filter="url(#filter6_f_32_2)">
<path d="M7.57251 2.24347L8.42751 5.86197" stroke="#FFCDA6" stroke-width="0.75" stroke-linecap="square"/>
</g>
<g filter="url(#filter7_f_32_2)">
<path d="M11.0385 2.57947L10.901 6.56447" stroke="#FFD0AA" stroke-width="0.75" stroke-linecap="square"/>
</g>
<path d="M12.4965 9.924C12.5445 10.415 12.5375 10.9395 12.4045 11.393C12.2075 12.2455 11.6895 12.9885 11.096 13.551L10.3475 12.385C10.421 11.24 10.2675 10.657 10.0775 10.439C9.86399 10.194 9.73649 10.194 9.20149 10.194C9.01766 10.195 8.83421 10.1773 8.65399 10.141C8.61599 10.1336 8.5783 10.1248 8.54099 10.1145C8.46961 10.0972 8.40036 10.072 8.33449 10.0395L8.33499 10.037C8.06174 9.90773 7.84056 9.68939 7.70778 9.41783C7.57499 9.14627 7.53848 8.83764 7.60425 8.54259C7.67001 8.24755 7.83414 7.98363 8.06969 7.79418C8.30524 7.60472 8.5982 7.50098 8.90049 7.5H9.85849C10.4285 7.5 12.135 7.927 12.4965 9.924Z" fill="#E0A494"/>
<path d="M12.4965 9.924C12.5445 10.415 12.5375 10.9395 12.4045 11.393C12.2075 12.2455 11.6895 12.9885 11.096 13.551L10.3475 12.385C10.421 11.24 10.2675 10.657 10.0775 10.439C9.86399 10.194 9.73649 10.194 9.20149 10.194C9.01766 10.195 8.83421 10.1773 8.65399 10.141C8.61599 10.1336 8.5783 10.1248 8.54099 10.1145C8.46961 10.0972 8.40036 10.072 8.33449 10.0395L8.33499 10.037C8.06174 9.90773 7.84056 9.68939 7.70778 9.41783C7.57499 9.14627 7.53848 8.83764 7.60425 8.54259C7.67001 8.24755 7.83414 7.98363 8.06969 7.79418C8.30524 7.60472 8.5982 7.50098 8.90049 7.5H9.85849C10.4285 7.5 12.135 7.927 12.4965 9.924Z" fill="url(#paint20_radial_32_2)"/>
<path d="M12.4965 9.924C12.5445 10.415 12.5375 10.9395 12.4045 11.393C12.2075 12.2455 11.6895 12.9885 11.096 13.551L10.3475 12.385C10.421 11.24 10.2675 10.657 10.0775 10.439C9.86399 10.194 9.73649 10.194 9.20149 10.194C9.01766 10.195 8.83421 10.1773 8.65399 10.141C8.61599 10.1336 8.5783 10.1248 8.54099 10.1145C8.46961 10.0972 8.40036 10.072 8.33449 10.0395L8.33499 10.037C8.06174 9.90773 7.84056 9.68939 7.70778 9.41783C7.57499 9.14627 7.53848 8.83764 7.60425 8.54259C7.67001 8.24755 7.83414 7.98363 8.06969 7.79418C8.30524 7.60472 8.5982 7.50098 8.90049 7.5H9.85849C10.4285 7.5 12.135 7.927 12.4965 9.924Z" fill="url(#paint21_radial_32_2)"/>
<path d="M12.4965 9.924C12.5445 10.415 12.5375 10.9395 12.4045 11.393C12.2075 12.2455 11.6895 12.9885 11.096 13.551L10.3475 12.385C10.421 11.24 10.2675 10.657 10.0775 10.439C9.86399 10.194 9.73649 10.194 9.20149 10.194C9.01766 10.195 8.83421 10.1773 8.65399 10.141C8.61599 10.1336 8.5783 10.1248 8.54099 10.1145C8.46961 10.0972 8.40036 10.072 8.33449 10.0395L8.33499 10.037C8.06174 9.90773 7.84056 9.68939 7.70778 9.41783C7.57499 9.14627 7.53848 8.83764 7.60425 8.54259C7.67001 8.24755 7.83414 7.98363 8.06969 7.79418C8.30524 7.60472 8.5982 7.50098 8.90049 7.5H9.85849C10.4285 7.5 12.135 7.927 12.4965 9.924Z" fill="url(#paint22_radial_32_2)"/>
<g filter="url(#filter8_f_32_2)">
<path d="M9.17801 8.57996H10.0815C10.6785 8.57996 11.2965 8.78046 11.5435 9.32446C11.6735 9.61196 11.7735 9.97946 11.7735 10.4295" stroke="url(#paint23_linear_32_2)" stroke-width="0.75" stroke-linecap="round"/>
</g>
<path fill-rule="evenodd" clip-rule="evenodd" d="M6.8695 1.13698C6.16 1.29998 5.702 2.01948 5.865 2.72898L6.8385 6.88348L5.07 7.31948L5.174 8.01698C5.19912 8.1852 5.19085 8.35673 5.14968 8.52176C5.10851 8.68678 5.03523 8.84209 4.93404 8.9788C4.83285 9.11551 4.70572 9.23095 4.55991 9.31853C4.4141 9.40611 4.25247 9.46411 4.08425 9.48923C3.74451 9.53995 3.39853 9.45364 3.12243 9.24927C2.98572 9.14807 2.87028 9.02095 2.7827 8.87514C2.69512 8.72933 2.63712 8.5677 2.612 8.39948L2.5755 8.15598C2.668 8.81848 2.848 10.101 3.1455 11.3215C3.5385 13.095 4.644 14.4655 6.5955 14.8835C8.109 15.0975 9.143 14.8375 10.0805 14.3075C11.018 13.7775 12.0985 12.7175 12.4045 11.3925C12.705 10.369 12.3635 8.98098 12.1905 8.43748L11.9405 7.49348C11.8707 7.22893 11.8374 6.95606 11.8415 6.68248L11.8975 2.94648C11.9042 2.77096 11.8757 2.59588 11.8138 2.43151C11.7519 2.26715 11.6577 2.11683 11.5368 1.98937C11.416 1.86192 11.2709 1.75991 11.11 1.68934C10.9492 1.61877 10.7758 1.58106 10.6002 1.57842C10.4246 1.57579 10.2502 1.60829 10.0873 1.67401C9.92443 1.73973 9.77632 1.83734 9.6517 1.96111C9.52707 2.08489 9.42844 2.23232 9.36161 2.39475C9.29477 2.55719 9.26107 2.73134 9.2625 2.90698L9.222 5.61298L8.458 2.11648C8.295 1.40748 7.579 0.97398 6.8695 1.13698Z" fill="url(#paint24_radial_32_2)"/>
<path fill-rule="evenodd" clip-rule="evenodd" d="M6.8695 1.13698C6.16 1.29998 5.702 2.01948 5.865 2.72898L6.8385 6.88348L5.07 7.31948L5.174 8.01698C5.19912 8.1852 5.19085 8.35673 5.14968 8.52176C5.10851 8.68678 5.03523 8.84209 4.93404 8.9788C4.83285 9.11551 4.70572 9.23095 4.55991 9.31853C4.4141 9.40611 4.25247 9.46411 4.08425 9.48923C3.74451 9.53995 3.39853 9.45364 3.12243 9.24927C2.98572 9.14807 2.87028 9.02095 2.7827 8.87514C2.69512 8.72933 2.63712 8.5677 2.612 8.39948L2.5755 8.15598C2.668 8.81848 2.848 10.101 3.1455 11.3215C3.5385 13.095 4.644 14.4655 6.5955 14.8835C8.109 15.0975 9.143 14.8375 10.0805 14.3075C11.018 13.7775 12.0985 12.7175 12.4045 11.3925C12.705 10.369 12.3635 8.98098 12.1905 8.43748L11.9405 7.49348C11.8707 7.22893 11.8374 6.95606 11.8415 6.68248L11.8975 2.94648C11.9042 2.77096 11.8757 2.59588 11.8138 2.43151C11.7519 2.26715 11.6577 2.11683 11.5368 1.98937C11.416 1.86192 11.2709 1.75991 11.11 1.68934C10.9492 1.61877 10.7758 1.58106 10.6002 1.57842C10.4246 1.57579 10.2502 1.60829 10.0873 1.67401C9.92443 1.73973 9.77632 1.83734 9.6517 1.96111C9.52707 2.08489 9.42844 2.23232 9.36161 2.39475C9.29477 2.55719 9.26107 2.73134 9.2625 2.90698L9.222 5.61298L8.458 2.11648C8.295 1.40748 7.579 0.97398 6.8695 1.13698Z" fill="url(#paint25_radial_32_2)"/>
<path fill-rule="evenodd" clip-rule="evenodd" d="M6.8695 1.13698C6.16 1.29998 5.702 2.01948 5.865 2.72898L6.8385 6.88348L5.07 7.31948L5.174 8.01698C5.19912 8.1852 5.19085 8.35673 5.14968 8.52176C5.10851 8.68678 5.03523 8.84209 4.93404 8.9788C4.83285 9.11551 4.70572 9.23095 4.55991 9.31853C4.4141 9.40611 4.25247 9.46411 4.08425 9.48923C3.74451 9.53995 3.39853 9.45364 3.12243 9.24927C2.98572 9.14807 2.87028 9.02095 2.7827 8.87514C2.69512 8.72933 2.63712 8.5677 2.612 8.39948L2.5755 8.15598C2.668 8.81848 2.848 10.101 3.1455 11.3215C3.5385 13.095 4.644 14.4655 6.5955 14.8835C8.109 15.0975 9.143 14.8375 10.0805 14.3075C11.018 13.7775 12.0985 12.7175 12.4045 11.3925C12.705 10.369 12.3635 8.98098 12.1905 8.43748L11.9405 7.49348C11.8707 7.22893 11.8374 6.95606 11.8415 6.68248L11.8975 2.94648C11.9042 2.77096 11.8757 2.59588 11.8138 2.43151C11.7519 2.26715 11.6577 2.11683 11.5368 1.98937C11.416 1.86192 11.2709 1.75991 11.11 1.68934C10.9492 1.61877 10.7758 1.58106 10.6002 1.57842C10.4246 1.57579 10.2502 1.60829 10.0873 1.67401C9.92443 1.73973 9.77632 1.83734 9.6517 1.96111C9.52707 2.08489 9.42844 2.23232 9.36161 2.39475C9.29477 2.55719 9.26107 2.73134 9.2625 2.90698L9.222 5.61298L8.458 2.11648C8.295 1.40748 7.579 0.97398 6.8695 1.13698Z" fill="url(#paint26_radial_32_2)"/>
<defs>
<filter id="filter0_i_32_2" x="2.5455" y="0.727234" width="10.2282" height="14.2313" filterUnits="userSpaceOnUse" color-interpolation-filters="sRGB">
<feFlood flood-opacity="0" result="BackgroundImageFix"/>
<feBlend mode="normal" in="SourceGraphic" in2="BackgroundImageFix" result="shape"/>
<feColorMatrix in="SourceAlpha" type="matrix" values="0 0 0 0 0 0 0 0 0 0 0 0 0 0 0 0 0 0 127 0" result="hardAlpha"/>
<feOffset dx="0.25" dy="-0.375"/>
<feGaussianBlur stdDeviation="0.375"/>
<feComposite in2="hardAlpha" operator="arithmetic" k2="-1" k3="1"/>
<feColorMatrix type="matrix" values="0 0 0 0 0.717647 0 0 0 0 0.439216 0 0 0 0 0.556863 0 0 0 1 0"/>
<feBlend mode="normal" in2="shape" result="effect1_innerShadow_32_2"/>
</filter>
<filter id="filter1_f_32_2" x="2.52051" y="5.26801" width="5.1235" height="5.72803" filterUnits="userSpaceOnUse" color-interpolation-filters="sRGB">
<feFlood flood-opacity="0" result="BackgroundImageFix"/>
<feBlend mode="normal" in="SourceGraphic" in2="BackgroundImageFix" result="shape"/>
<feGaussianBlur stdDeviation="0.5" result="effect1_foregroundBlur_32_2"/>
</filter>
<filter id="filter2_f_32_2" x="6.328" y="7" width="6.72" height="4.53851" filterUnits="userSpaceOnUse" color-interpolation-filters="sRGB">
<feFlood flood-opacity="0" result="BackgroundImageFix"/>
<feBlend mode="normal" in="SourceGraphic" in2="BackgroundImageFix" result="shape"/>
<feGaussianBlur stdDeviation="0.5" result="effect1_foregroundBlur_32_2"/>
</filter>
<filter id="filter3_f_32_2" x="3.66721" y="5.73486" width="1.75055" height="3.62921" filterUnits="userSpaceOnUse" color-interpolation-filters="sRGB">
<feFlood flood-opacity="0" result="BackgroundImageFix"/>
<feBlend mode="normal" in="SourceGraphic" in2="BackgroundImageFix" result="shape"/>
<feGaussianBlur stdDeviation="0.25" result="effect1_foregroundBlur_32_2"/>
</filter>
<filter id="filter4_f_32_2" x="3.41321" y="6.30133" width="1.45032" height="2.56268" filterUnits="userSpaceOnUse" color-interpolation-filters="sRGB">
<feFlood flood-opacity="0" result="BackgroundImageFix"/>
<feBlend mode="normal" in="SourceGraphic" in2="BackgroundImageFix" result="shape"/>
<feGaussianBlur stdDeviation="0.1875" result="effect1_foregroundBlur_32_2"/>
</filter>
<filter id="filter5_f_32_2" x="5.04974" y="4.96857" width="2.37634" height="3.77667" filterUnits="userSpaceOnUse" color-interpolation-filters="sRGB">
<feFlood flood-opacity="0" result="BackgroundImageFix"/>
<feBlend mode="normal" in="SourceGraphic" in2="BackgroundImageFix" result="shape"/>
<feGaussianBlur stdDeviation="0.25" result="effect1_foregroundBlur_32_2"/>
</filter>
<filter id="filter6_f_32_2" x="6.37134" y="1.0423" width="3.25735" height="6.02087" filterUnits="userSpaceOnUse" color-interpolation-filters="sRGB">
<feFlood flood-opacity="0" result="BackgroundImageFix"/>
<feBlend mode="normal" in="SourceGraphic" in2="BackgroundImageFix" result="shape"/>
<feGaussianBlur stdDeviation="0.375" result="effect1_foregroundBlur_32_2"/>
</filter>
<filter id="filter7_f_32_2" x="9.76331" y="1.44177" width="2.4129" height="6.26038" filterUnits="userSpaceOnUse" color-interpolation-filters="sRGB">
<feFlood flood-opacity="0" result="BackgroundImageFix"/>
<feBlend mode="normal" in="SourceGraphic" in2="BackgroundImageFix" result="shape"/>
<feGaussianBlur stdDeviation="0.375" result="effect1_foregroundBlur_32_2"/>
</filter>
<filter id="filter8_f_32_2" x="8.05301" y="7.45496" width="4.84549" height="4.09949" filterUnits="userSpaceOnUse" color-interpolation-filters="sRGB">
<feFlood flood-opacity="0" result="BackgroundImageFix"/>
<feBlend mode="normal" in="SourceGraphic" in2="BackgroundImageFix" result="shape"/>
<feGaussianBlur stdDeviation="0.375" result="effect1_foregroundBlur_32_2"/>
</filter>
<radialGradient id="paint0_radial_32_2" cx="0" cy="0" r="1" gradientUnits="userSpaceOnUse" gradientTransform="translate(10.001 10.126) rotate(139.399) scale(2.51878 2.25784)">
<stop stop-color="#E7AC9E"/>
<stop offset="1" stop-color="#E7AC9E" stop-opacity="0"/>
</radialGradient>
<linearGradient id="paint1_linear_32_2" x1="2.70987" y1="8.17195" x2="3.6255" y2="8.01346" gradientUnits="userSpaceOnUse">
<stop stop-color="#CB9A78"/>
<stop offset="1" stop-color="#CB9A78" stop-opacity="0"/>
</linearGradient>
<linearGradient id="paint2_linear_32_2" x1="2.6353" y1="8.17702" x2="2.97635" y2="8.11142" gradientUnits="userSpaceOnUse">
<stop stop-color="#DFA589"/>
<stop offset="1" stop-color="#DFA589" stop-opacity="0"/>
</linearGradient>
<radialGradient id="paint3_radial_32_2" cx="0" cy="0" r="1" gradientUnits="userSpaceOnUse" gradientTransform="translate(3.80969 9.5582) rotate(-90.0004) scale(1.42823 1.93181)">
<stop stop-color="#C27580"/>
<stop offset="1" stop-color="#C27580" stop-opacity="0"/>
</radialGradient>
<radialGradient id="paint4_radial_32_2" cx="0" cy="0" r="1" gradientUnits="userSpaceOnUse" gradientTransform="translate(4.39565 5.51437) rotate(104.036) scale(1.67501 1.98232)">
<stop stop-color="#BB8B6A"/>
<stop offset="1" stop-color="#BB8B6A" stop-opacity="0"/>
</radialGradient>
<linearGradient id="paint5_linear_32_2" x1="6.27851" y1="4.33748" x2="7.75901" y2="3.96698" gradientUnits="userSpaceOnUse">
<stop stop-color="#CF8B61"/>
<stop offset="1" stop-color="#CF8B61" stop-opacity="0"/>
</linearGradient>
<linearGradient id="paint6_linear_32_2" x1="6.06201" y1="4.34298" x2="6.57051" y2="4.26898" gradientUnits="userSpaceOnUse">
<stop stop-color="#DD9E79"/>
<stop offset="1" stop-color="#DD9E79" stop-opacity="0"/>
</linearGradient>
<linearGradient id="paint7_linear_32_2" x1="9.22201" y1="4.87498" x2="8.60301" y2="5.04348" gradientUnits="userSpaceOnUse">
<stop stop-color="#BD8668"/>
<stop offset="1" stop-color="#BD8668" stop-opacity="0"/>
</linearGradient>
<linearGradient id="paint8_linear_32_2" x1="8.08301" y1="7.60848" x2="7.82551" y2="5.63998" gradientUnits="userSpaceOnUse">
<stop offset="0.307" stop-color="#E0A594"/>
<stop offset="1" stop-color="#E0A594" stop-opacity="0"/>
</linearGradient>
<radialGradient id="paint9_radial_32_2" cx="0" cy="0" r="1" gradientUnits="userSpaceOnUse" gradientTransform="translate(7.47201 1.10248) rotate(95.1685) scale(1.38758 1.55959)">
<stop stop-color="#DDB28E"/>
<stop offset="1" stop-color="#DDB28E" stop-opacity="0"/>
</radialGradient>
<linearGradient id="paint10_linear_32_2" x1="8.8375" y1="3.95997" x2="10.402" y2="4.04597" gradientUnits="userSpaceOnUse">
<stop stop-color="#C3825B"/>
<stop offset="1" stop-color="#C58560" stop-opacity="0"/>
</linearGradient>
<linearGradient id="paint11_linear_32_2" x1="10.4335" y1="6.30197" x2="10.4825" y2="5.55447" gradientUnits="userSpaceOnUse">
<stop stop-color="#E0A495"/>
<stop offset="1" stop-color="#E0A495" stop-opacity="0"/>
</linearGradient>
<radialGradient id="paint12_radial_32_2" cx="0" cy="0" r="1" gradientUnits="userSpaceOnUse" gradientTransform="translate(11.525 1.60897) rotate(111.633) scale(1.94096 1.68433)">
<stop stop-color="#DDB28E"/>
<stop offset="1" stop-color="#DDB28E" stop-opacity="0"/>
</radialGradient>
<radialGradient id="paint13_radial_32_2" cx="0" cy="0" r="1" gradientUnits="userSpaceOnUse" gradientTransform="translate(11.9171 8.25975) rotate(-167.551) scale(5.55785 4.39248)">
<stop stop-color="#FFCFA7"/>
<stop offset="1" stop-color="#FFCFA7" stop-opacity="0"/>
</radialGradient>
<linearGradient id="paint14_linear_32_2" x1="4.69758" y1="7.75692" x2="5.63633" y2="7.59751" gradientUnits="userSpaceOnUse">
<stop stop-color="#BB815D"/>
<stop offset="1" stop-color="#BB815D" stop-opacity="0"/>
</linearGradient>
<linearGradient id="paint15_linear_32_2" x1="7.55073" y1="7.4208" x2="6.04046" y2="7.58872" gradientUnits="userSpaceOnUse">
<stop stop-color="#F8C095"/>
<stop offset="1" stop-color="#F8C095" stop-opacity="0"/>
</linearGradient>
<radialGradient id="paint16_radial_32_2" cx="0" cy="0" r="1" gradientUnits="userSpaceOnUse" gradientTransform="translate(5.85741 9.39608) rotate(-91.0361) scale(1.66529 1.9844)">
<stop stop-color="#C27580"/>
<stop offset="1" stop-color="#C27580" stop-opacity="0"/>
</radialGradient>
<radialGradient id="paint17_radial_32_2" cx="0" cy="0" r="1" gradientUnits="userSpaceOnUse" gradientTransform="translate(4.91161 4.82666) rotate(55.39) scale(1.59451 1.71232)">
<stop stop-color="#BB8B6A"/>
<stop offset="1" stop-color="#BB8B6A" stop-opacity="0"/>
</radialGradient>
<linearGradient id="paint18_linear_32_2" x1="4.32317" y1="8.139" x2="4.05732" y2="6.24048" gradientUnits="userSpaceOnUse">
<stop stop-color="#E8AF98"/>
<stop offset="1" stop-color="#E8AF98" stop-opacity="0"/>
</linearGradient>
<linearGradient id="paint19_linear_32_2" x1="6.56071" y1="7.48781" x2="6.02673" y2="4.11003" gradientUnits="userSpaceOnUse">
<stop stop-color="#FFD5B6"/>
<stop offset="1" stop-color="#FFD5B6" stop-opacity="0"/>
</linearGradient>
<radialGradient id="paint20_radial_32_2" cx="0" cy="0" r="1" gradientUnits="userSpaceOnUse" gradientTransform="translate(9.11499 12.29) rotate(-71.9433) scale(5.164 6.90835)">
<stop offset="0.816" stop-color="#E6B186" stop-opacity="0"/>
<stop offset="1" stop-color="#E6B186"/>
</radialGradient>
<radialGradient id="paint21_radial_32_2" cx="0" cy="0" r="1" gradientUnits="userSpaceOnUse" gradientTransform="translate(7.33199 7.5) rotate(30.3566) scale(1.7753 2.81148)">
<stop stop-color="#CA8D63"/>
<stop offset="1" stop-color="#CA8D63" stop-opacity="0"/>
</radialGradient>
<radialGradient id="paint22_radial_32_2" cx="0" cy="0" r="1" gradientUnits="userSpaceOnUse" gradientTransform="translate(9.58331 10.322) rotate(96.583) scale(1.49502 3.0527)">
<stop stop-color="#BA7377"/>
<stop offset="1" stop-color="#BA7377" stop-opacity="0"/>
</radialGradient>
<linearGradient id="paint23_linear_32_2" x1="9.35551" y1="8.57996" x2="12.0885" y2="10.067" gradientUnits="userSpaceOnUse">
<stop stop-color="#FCC9A9"/>
<stop offset="1" stop-color="#FCC9A9" stop-opacity="0"/>
</linearGradient>
<radialGradient id="paint24_radial_32_2" cx="0" cy="0" r="1" gradientUnits="userSpaceOnUse" gradientTransform="translate(5.83321 10.093) rotate(11.85) scale(7.15245 12.8515)">
<stop offset="0.865" stop-color="#A47F71" stop-opacity="0"/>
<stop offset="1" stop-color="#D1A88C"/>
</radialGradient>
<radialGradient id="paint25_radial_32_2" cx="0" cy="0" r="1" gradientUnits="userSpaceOnUse" gradientTransform="translate(5.05821 7.85351) rotate(39.598) scale(8.28315 10.2959)">
<stop offset="0.902" stop-color="#E0A494" stop-opacity="0"/>
<stop offset="1" stop-color="#E0A494"/>
</radialGradient>
<radialGradient id="paint26_radial_32_2" cx="0" cy="0" r="1" gradientUnits="userSpaceOnUse" gradientTransform="translate(9.9525 9.07498) rotate(162.562) scale(7.05375 9.40275)">
<stop offset="0.911" stop-color="#DC9F88" stop-opacity="0"/>
<stop offset="1" stop-color="#DC9F88"/>
</radialGradient>
</defs>
</svg>
