<svg width="14" height="14" viewBox="0 0 14 14" fill="none" xmlns="http://www.w3.org/2000/svg">
<g clip-path="url(#clip0_22_2)">
<path fill-rule="evenodd" clip-rule="evenodd" d="M1.70699 0.29298C1.51839 0.110822 1.26579 0.0100274 1.00359 0.0123059C0.741392 0.0145843 0.490579 0.119753 0.305171 0.305161C0.119763 0.490569 0.014594 0.741382 0.0123156 1.00358C0.0100372 1.26578 0.110832 1.51838 0.29299 1.70698L5.58599 6.99998L0.29299 12.293C0.197479 12.3852 0.121297 12.4956 0.0688882 12.6176C0.0164792 12.7396 -0.011107 12.8708 -0.0122608 13.0036C-0.0134146 13.1364 0.0118871 13.268 0.0621679 13.3909C0.112449 13.5138 0.186702 13.6255 0.280595 13.7194C0.374487 13.8133 0.486139 13.8875 0.609036 13.9378C0.731932 13.9881 0.863612 14.0134 0.996391 14.0122C1.12917 14.0111 1.26039 13.9835 1.38239 13.9311C1.5044 13.8787 1.61474 13.8025 1.70699 13.707L6.99999 8.41398L12.293 13.707C12.4816 13.8891 12.7342 13.9899 12.9964 13.9877C13.2586 13.9854 13.5094 13.8802 13.6948 13.6948C13.8802 13.5094 13.9854 13.2586 13.9877 12.9964C13.9899 12.7342 13.8891 12.4816 13.707 12.293L8.41399 6.99998L13.707 1.70698C13.8891 1.51838 13.9899 1.26578 13.9877 1.00358C13.9854 0.741382 13.8802 0.490569 13.6948 0.305161C13.5094 0.119753 13.2586 0.0145843 12.9964 0.0123059C12.7342 0.0100274 12.4816 0.110822 12.293 0.29298L6.99999 5.58598L1.70699 0.29298Z" fill="black"/>
</g>
<defs>
<clipPath id="clip0_22_2">
<rect width="14" height="14" fill="white"/>
</clipPath>
</defs>
</svg>
