<svg width="14" height="14" viewBox="0 0 14 14" fill="none" xmlns="http://www.w3.org/2000/svg">
<g clip-path="url(#clip0_26_6)">
<path fill-rule="evenodd" clip-rule="evenodd" d="M1.707 0.29298C1.5184 0.110822 1.2658 0.0100274 1.0036 0.0123059C0.741403 0.0145843 0.490591 0.119753 0.305182 0.305161C0.119774 0.490569 0.0146054 0.741382 0.012327 1.00358C0.0100486 1.26578 0.110843 1.51838 0.293001 1.70698L5.586 6.99998L0.293001 12.293C0.197491 12.3852 0.121309 12.4956 0.0688997 12.6176C0.0164907 12.7396 -0.0110956 12.8708 -0.0122494 13.0036C-0.0134032 13.1364 0.0118985 13.268 0.0621794 13.3909C0.11246 13.5138 0.186713 13.6255 0.280606 13.7194C0.374499 13.8133 0.486151 13.8875 0.609047 13.9378C0.731943 13.9881 0.863623 14.0134 0.996402 14.0122C1.12918 14.0111 1.2604 13.9835 1.38241 13.9311C1.50441 13.8787 1.61475 13.8025 1.707 13.707L7 8.41398L12.293 13.707C12.4816 13.8891 12.7342 13.9899 12.9964 13.9877C13.2586 13.9854 13.5094 13.8802 13.6948 13.6948C13.8802 13.5094 13.9854 13.2586 13.9877 12.9964C13.99 12.7342 13.8892 12.4816 13.707 12.293L8.414 6.99998L13.707 1.70698C13.8892 1.51838 13.99 1.26578 13.9877 1.00358C13.9854 0.741382 13.8802 0.490569 13.6948 0.305161C13.5094 0.119753 13.2586 0.0145843 12.9964 0.0123059C12.7342 0.0100274 12.4816 0.110822 12.293 0.29298L7 5.58598L1.707 0.29298Z" fill="white"/>
</g>
<defs>
<clipPath id="clip0_26_6">
<rect width="14" height="14" fill="white"/>
</clipPath>
</defs>
</svg>
